<?xml version="1.0"?>
<svg width="256" height="256" xmlns="http://www.w3.org/2000/svg" xmlns:svg="http://www.w3.org/2000/svg" version="1.1" xml:space="preserve">

 <g class="layer">
  <title>Layer 1</title>
  <path d="m127.86,254.31c-69.72,0 -126.45,-56.73 -126.45,-126.45c0,-69.72 56.73,-126.45 126.45,-126.45c69.72,0 126.45,56.73 126.45,126.45c0,69.72 -56.73,126.45 -126.45,126.45zm0,-241.66c-63.53,0 -115.21,51.68 -115.21,115.21s51.68,115.21 115.21,115.21s115.21,-51.68 115.21,-115.21s-51.68,-115.21 -115.21,-115.21z" fill="rgb(0,0,0)" fill-rule="nonzero" id="svg_2" stroke-miterlimit="10"/>
  <path d="m109.55,166.6c-1.39,0 -2.8,-0.38 -4.06,-1.1c-2.56,-1.48 -4.08,-4.11 -4.08,-7.05l0,-57.82c0,-2.96 1.52,-5.59 4.08,-7.05c2.54,-1.48 5.59,-1.48 8.14,0l50.08,28.9c2.54,1.48 4.06,4.11 4.06,7.05s-1.52,5.57 -4.06,7.05l0,0l-50.08,28.92c-1.28,0.72 -2.67,1.1 -4.08,1.1zm0,-66.91c-0.18,0 -0.34,0.05 -0.45,0.13c-0.22,0.13 -0.47,0.36 -0.47,0.81l0,57.8c0,0.45 0.25,0.69 0.47,0.81c0.2,0.13 0.54,0.22 0.92,0l50.08,-28.9c0.38,-0.23 0.45,-0.58 0.45,-0.81s-0.07,-0.58 -0.45,-0.81l-50.08,-28.9c-0.16,-0.09 -0.32,-0.13 -0.47,-0.13zm52.35,33.77l0.02,0l-0.02,0z" fill="rgb(0,0,0)" fill-rule="nonzero" id="svg_3" stroke-miterlimit="10"/>
 </g>
</svg>